# xmcd
#
# Track frame offsets:
#	150
#	34309
#	46899
#	63387
#	98434
#	113959
#	145718
#	165271
#	182011
#	203779
#	227240
#	253275
#
# Disc length: 3778 seconds
#
# Revision: 1
# Processed by: cddbd v1.5.2PL0 Copyright (c) Steve Scherf et al.
# Submitted via: EZCDAudioConverter 7.1.7.1
#
DISCID=9f0ec00c
DTITLE=群星 - 中国音乐 DTS-ES5.1
DYEAR=2003
DGENRE=
TTITLE0=百鸟朝鳯
TTITLE1=打枣
TTITLE2=彩云追月
TTITLE3=春江花月夜
TTITLE4=步步高
TTITLE5=二泉映月
TTITLE6=满江红
TTITLE7=茉莉花
TTITLE8=锔大缸
TTITLE9=看秧歌
TTITLE10=梁祝
TTITLE11=三六
EXTD=
EXTT0=
EXTT1=
EXTT2=
EXTT3=
EXTT4=
EXTT5=
EXTT6=
EXTT7=
EXTT8=
EXTT9=
EXTT10=
EXTT11=
PLAYORDER=
